<?xml version="1.0" standalone="no"?>
<!DOCTYPE svg PUBLIC "-//W3C//DTD SVG 20010904//EN"
 "http://www.w3.org/TR/2001/REC-SVG-20010904/DTD/svg10.dtd">
<svg version="1.0" xmlns="http://www.w3.org/2000/svg"
 width="728.000000pt" height="728.000000pt" viewBox="0 0 728.000000 728.000000"
 preserveAspectRatio="xMidYMid meet">

<g transform="translate(0.000000,728.000000) scale(0.100000,-0.100000)"
fill="#000000" stroke="none">
<path d="M1062 6654 c-214 -57 -381 -226 -437 -440 -13 -51 -15 -364 -15
-2574 0 -2210 2 -2523 15 -2574 50 -190 185 -344 370 -419 l80 -32 2565 0
2565 0 81 33 c160 66 276 181 343 340 l36 87 0 2565 0 2565 -32 80 c-75 185
-229 320 -419 370 -85 22 -5070 22 -5152 -1z m2793 -1832 c49 -14 78 -30 97
-51 48 -53 52 -92 48 -376 -8 -421 -5 -576 9 -620 18 -54 67 -105 102 -105
113 0 409 426 587 845 73 171 81 184 114 205 32 19 52 20 446 20 443 0 467 -2
492 -51 22 -39 5 -124 -43 -224 -60 -123 -152 -262 -331 -499 -201 -264 -265
-353 -287 -401 -26 -57 -24 -117 6 -169 14 -23 110 -125 215 -225 435 -418
542 -620 372 -703 -65 -31 -188 -39 -517 -36 l-291 3 -80 39 c-83 41 -137 91
-404 373 -112 118 -152 146 -211 146 -98 0 -158 -116 -178 -344 -9 -111 -24
-148 -65 -172 -29 -16 -358 -22 -483 -8 -199 21 -394 88 -581 198 -253 149
-476 392 -749 814 -171 264 -409 705 -546 1011 -74 165 -75 214 -4 237 20 7
160 13 355 16 351 5 399 -1 444 -50 13 -14 47 -80 77 -147 110 -247 191 -398
327 -603 212 -322 333 -366 390 -143 16 62 19 111 19 338 0 282 -6 333 -50
420 -27 53 -84 93 -156 110 -61 15 -63 32 -11 82 82 81 180 98 547 94 241 -2
278 -5 340 -24z"/>
</g>
</svg>
